# xmcd
#
# Track frame offsets: 
#        150
#        16707
#        30904
#        47200
#        65363
#        84365
#        100407
#        116647
#        130983
#        145978
#        168874
#
# Disc length: 2503 seconds
#
# Revision: 2
# Processed by: cddbd v1.5.2PL0 Copyright (c) Steve Scherf et al.
# Submitted via: ExactAudioCopy v1.0b3
#
DISCID=8709c50b
DTITLE=Bloodbath - The Fathomless Mastery
DYEAR=2008
DGENRE=Death Metal
TTITLE0=At The Behest Of Their Death
TTITLE1=Process Of Disillumination
TTITLE2=Slaughtering The Will To Live
TTITLE3=Mock The Cross
TTITLE4=Treasonous
TTITLE5=Iesous
TTITLE6=Drink From The Cup Of Heresy
TTITLE7=Devouring The Feeble
TTITLE8=Earthrot
TTITLE9=Hades Rising
TTITLE10=Wretched Human Mirror
EXTD=YEAR: 2008
EXTT0=
EXTT1=
EXTT2=
EXTT3=
EXTT4=
EXTT5=
EXTT6=
EXTT7=
EXTT8=
EXTT9=
EXTT10=
PLAYORDER=
